<?xml version="1.0" encoding="UTF-8"?>
<svg version="1.1" xmlns="http://www.w3.org/2000/svg" width="860" height="1105">
<path d="M0 0 C283.8 0 567.6 0 860 0 C860 364.65 860 729.3 860 1105 C576.2 1105 292.4 1105 0 1105 C0 740.35 0 375.7 0 0 Z " fill="#F6F6F6" transform="translate(0,0)"/>
<path d="M0 0 C2.22740888 2.22740888 2.96431601 3.96156503 4.1796875 6.85546875 C4.60773682 7.85916504 5.03578613 8.86286133 5.47680664 9.89697266 C5.93821045 10.98284668 6.39961426 12.0687207 6.875 13.1875 C17.32265761 37.29694395 29.17387573 61.81728746 48.31640625 80.3203125 C49.97973771 81.97978472 51.48565841 83.7043685 53 85.5 C56.62258687 89.71537382 60.55382276 93.5916379 64.5 97.5 C68.914669 101.87679545 73.26058714 106.23850323 77.2734375 110.9921875 C79.11143453 113.12958676 81.01782203 115.19658172 82.93603516 117.26196289 C87.66796227 122.36078696 92.20944329 127.55654068 96.5703125 132.98046875 C98.36164261 135.2066716 100.16738303 137.41488116 101.9921875 139.61328125 C110.11459585 149.43351743 117.68216631 159.5685688 125 170 C125.804375 171.14275391 125.804375 171.14275391 126.625 172.30859375 C177.04420225 244.18019696 217.95557281 335.07320413 231 440 C231.31879553 442.73150768 231.64354901 445.4621996 231.97143555 448.19262695 C233.88051335 465.71899859 234.18643121 483.18375587 234.18530273 500.79931641 C234.1874838 504.59679474 234.20568859 508.39397919 234.22460938 512.19140625 C234.27360208 532.88232224 232.85356371 553.17408023 229.75 573.625 C229.5909317 574.68870316 229.5909317 574.68870316 229.4286499 575.77389526 C222.64484736 620.88661932 209.70368968 664.40444043 191 706 C190.65018066 706.78922852 190.30036133 707.57845703 189.93994141 708.39160156 C172.59963582 747.37929311 148.40569803 783.40944018 121 816 C120.53207031 816.55816406 120.06414062 817.11632812 119.58203125 817.69140625 C114.19963053 824.09770839 108.80720024 830.38271317 102.79296875 836.2109375 C100.93067862 838.06917036 99.21407621 840.00473825 97.5 842 C92.18376194 848.16008537 86.41363409 853.74019915 80.2421875 859.03515625 C78.07758799 860.93200913 75.97328765 862.88452839 73.87280273 864.85180664 C67.43682448 870.85976874 60.7173954 876.44050958 53.67724609 881.72949219 C52.5018937 882.61981735 51.34458177 883.53422903 50.20166016 884.46582031 C45.69314297 888.00100456 45.69314297 888.00100456 42.3046875 887.99609375 C32.28951688 883.66750306 26.09006184 873.00457105 21.9375 863.4375 C13.25011295 841.39314673 10.01757762 816.92581418 8.3125 793.4375 C8.18241002 791.732363 8.05155395 790.02728427 7.91992188 788.32226562 C7.60449569 784.21545794 7.29927213 780.10801513 7 776 C5.8547111 785.40837209 4.79052661 794.79871669 4.0625 804.25 C3.14325657 815.24912911 1.7279994 826.10105407 0 837 C-0.21398656 838.3681454 -0.4278453 839.73631079 -0.64160156 841.10449219 C-8.05593038 888.37035121 -8.05593038 888.37035121 -13 897 C-19.74399681 893.5530683 -25.2343066 888.87294087 -31 884 C-32.08171625 883.09467557 -33.16375438 882.18973563 -34.24609375 881.28515625 C-40.9574079 875.65969983 -47.53867576 869.91225875 -54 864 C-54.99343027 863.10019493 -55.98692292 862.20045872 -56.98046875 861.30078125 C-67.51381958 851.71747825 -78.07728906 841.90171142 -87.2734375 831.0078125 C-89.11143453 828.87041324 -91.01782203 826.80341828 -92.93603516 824.73803711 C-97.66796227 819.63921304 -102.20944329 814.44345932 -106.5703125 809.01953125 C-108.36164261 806.7933284 -110.16738303 804.58511884 -111.9921875 802.38671875 C-133.06686234 776.90747211 -151.2390211 749.04890894 -167 720 C-167.68231689 718.74606445 -167.68231689 718.74606445 -168.37841797 717.46679688 C-184.9106043 686.91014643 -197.39701071 654.97702246 -207.20849609 621.67431641 C-207.85824053 619.47897386 -208.52494209 617.29088954 -209.20703125 615.10546875 C-214.34184003 598.18719439 -217.18566929 580.71793276 -219.6875 563.25 C-219.79005096 562.53953522 -219.89260193 561.82907043 -219.9982605 561.09707642 C-220.71780211 556.07089122 -221.37429012 551.03866197 -222 546 C-222.09502808 545.26058167 -222.19005615 544.52116333 -222.28796387 543.75933838 C-224.23124529 528.31838591 -224.40033442 512.92237883 -224.375 497.375 C-224.37412384 496.05708466 -224.37324768 494.73916931 -224.37234497 493.38131714 C-224.33454112 470.07037172 -223.1402623 447.10729753 -220 424 C-219.87413513 423.07145203 -219.74827026 422.14290405 -219.61859131 421.18621826 C-216.61878162 399.27846147 -213.27010691 377.46154063 -207.76806641 356.02539062 C-206.9413584 352.76901251 -206.16144622 349.50349365 -205.38671875 346.234375 C-196.1729425 307.72964192 -182.97337308 270.7434771 -166 235 C-165.70867187 234.38576172 -165.41734375 233.77152344 -165.1171875 233.13867188 C-142.58952509 185.77155636 -113.64855531 141.30756951 -78.265625 102.51171875 C-77.03296954 101.14517141 -75.80659174 99.77236261 -74.61499023 98.36987305 C-69.44953436 92.32030382 -63.86177776 86.70985207 -58.23022461 81.09985352 C-56.56573723 79.4407268 -54.90666553 77.77631949 -53.24804688 76.11132812 C-46.01833097 68.875667 -38.709911 61.97632214 -30.52148438 55.83056641 C-14.93278198 43.98962713 -3.8772777 28.77644681 -1.0625 9.125 C-0.66818038 6.08536212 -0.32202967 3.04854751 0 0 Z " fill="#69B240" transform="translate(425,42)"/>
<path d="M0 0 C2.53002102 1.26501051 2.68722538 2.16500066 3.77734375 4.734375 C4.12015381 5.52561768 4.46296387 6.31686035 4.81616211 7.13208008 C5.18620361 7.99599365 5.55624512 8.85990723 5.9375 9.75 C15.87603138 32.32125524 27.37966447 54.98279372 45.31640625 72.3203125 C46.97973771 73.97978472 48.48565841 75.7043685 50 77.5 C53.62258687 81.71537382 57.55382276 85.5916379 61.5 89.5 C65.914669 93.87679545 70.26058714 98.23850323 74.2734375 102.9921875 C76.11143453 105.12958676 78.01782203 107.19658172 79.93603516 109.26196289 C84.66796227 114.36078696 89.20944329 119.55654068 93.5703125 124.98046875 C95.36164261 127.2066716 97.16738303 129.41488116 98.9921875 131.61328125 C107.11459585 141.43351743 114.68216631 151.5685688 122 162 C122.53625 162.76183594 123.0725 163.52367187 123.625 164.30859375 C174.04420225 236.18019696 214.95557281 327.07320413 228 432 C228.31879553 434.73150768 228.64354901 437.4621996 228.97143555 440.19262695 C230.88051335 457.71899859 231.18643121 475.18375587 231.18530273 492.79931641 C231.1874838 496.59679474 231.20568859 500.39397919 231.22460938 504.19140625 C231.27360208 524.88232224 229.85356371 545.17408023 226.75 565.625 C226.64395447 566.33413544 226.53790894 567.04327087 226.4286499 567.77389526 C219.64484736 612.88661932 206.70368968 656.40444043 188 698 C187.65018066 698.78922852 187.30036133 699.57845703 186.93994141 700.39160156 C169.59963582 739.37929311 145.40569803 775.40944018 118 808 C117.53207031 808.55816406 117.06414062 809.11632812 116.58203125 809.69140625 C111.19963053 816.09770839 105.80720024 822.38271317 99.79296875 828.2109375 C97.93067862 830.06917036 96.21407621 832.00473825 94.5 834 C89.18376194 840.16008537 83.41363409 845.74019915 77.2421875 851.03515625 C75.07758799 852.93200913 72.97328765 854.88452839 70.87280273 856.85180664 C64.43682448 862.85976874 57.7173954 868.44050958 50.67724609 873.72949219 C49.5018937 874.61981735 48.34458177 875.53422903 47.20166016 876.46582031 C42.69314297 880.00100456 42.69314297 880.00100456 39.3046875 879.99609375 C29.28951688 875.66750306 23.09006184 865.00457105 18.9375 855.4375 C14.70288594 844.69211388 12.42927165 833.25695279 10 822 C9.74259033 820.83597656 9.74259033 820.83597656 9.47998047 819.6484375 C2.26959741 786.42000554 4.53731568 751.66248729 6.78735352 718.015625 C8.31678579 695.02688278 9.24493843 672.02600695 10 649 C10.04543945 647.64427887 10.04543945 647.64427887 10.09179688 646.26116943 C10.94208959 620.69629229 11.0992498 595.13109478 11.12248993 569.55432129 C11.1249225 567.26057618 11.12886693 564.96683807 11.13311768 562.6730957 C11.16035454 545.55599687 10.9951057 528.45349509 10.59162521 511.34102058 C10.08029453 489.5971947 9.84613901 467.8581684 9.71875 446.109375 C9.71405598 445.3106247 9.70936197 444.5118744 9.70452571 443.68891954 C9.65104496 434.51704745 9.60202109 425.34515408 9.55471802 416.17324829 C9.49982013 405.53368111 9.43808685 394.89415863 9.37475586 384.25463867 C9.36945464 383.36322642 9.36415343 382.47181417 9.35869157 381.55338943 C9.33195887 377.06247136 9.30512 372.57155393 9.27820015 368.08063698 C9.25145577 363.61711966 9.22497332 359.15360083 9.19855994 354.69008154 C9.03306687 204.21754328 9.03306687 204.21754328 1 13 C0.89589212 11.63981915 0.79188386 10.27963067 0.68798828 8.91943359 C0.46019928 5.9461666 0.23101491 2.97301775 0 0 Z " fill="#599636" transform="translate(428,50)"/>
<path d="M0 0 C0.33 0 0.66 0 1 0 C1.05945801 0.9887915 1.11891602 1.97758301 1.18017578 2.99633789 C3.77353269 59.29684247 3.77353269 59.29684247 28.69140625 108.01171875 C31.28204468 110.24291158 33.89414715 111.59635058 37 113 C36.46890625 113.90621094 35.9378125 114.81242188 35.390625 115.74609375 C33.54884846 118.907469 31.74452136 122.08838886 29.96142578 125.28320312 C29.21420416 126.61750034 28.45188318 127.94334646 27.68359375 129.265625 C23.6404674 137.06648056 23.11559069 146.39748185 22 155 C21.74594391 156.78814369 21.74594391 156.78814369 21.48675537 158.6124115 C20.9428306 162.99272361 20.86578054 167.30162362 20.88647461 171.7109375 C20.88632858 172.54115921 20.88618256 173.37138092 20.8860321 174.22676086 C20.88672305 176.94286812 20.89447678 179.65890488 20.90234375 182.375 C20.90421084 184.26928673 20.90563337 186.16357394 20.90663147 188.05786133 C20.91043374 193.02261712 20.92024429 197.98734326 20.93133545 202.9520874 C20.94159899 208.02664794 20.94613965 213.10121331 20.95117188 218.17578125 C20.96186877 228.11720047 20.97891745 238.05859776 21 248 C18.29204622 247.21792017 15.58521855 246.43225473 12.87890625 245.64453125 C12.11888306 245.42543091 11.35885986 245.20633057 10.57580566 244.98059082 C4.90055557 243.32435373 -0.58408191 241.38193941 -6 239 C-6.0093457 238.23486084 -6.01869141 237.46972168 -6.02832031 236.68139648 C-6.49598763 205.59756751 -8.40084441 174.24378335 -16 144 C-16.19126465 143.22221191 -16.3825293 142.44442383 -16.57958984 141.64306641 C-18.45286172 133.83047601 -18.45286172 133.83047601 -21.17578125 126.29296875 C-22 124 -22 124 -21 121 C-20.34 120.01 -19.68 119.02 -19 118 C-8.37757562 85.63123903 -4.93249764 48.93905469 -2.73339844 15.17919922 C-2.35914844 9.83771168 -1.71246784 5.0805581 0 0 Z " fill="#C1BFBE" transform="translate(432,817)"/>
</svg>
